<?xml version="1.0" encoding="UTF-8"?>
<!DOCTYPE svg PUBLIC "-//W3C//DTD SVG 1.1//EN" "http://www.w3.org/Graphics/SVG/1.1/DTD/svg11.dtd">
<svg version="1.1" xmlns="http://www.w3.org/2000/svg" xmlns:xlink="http://www.w3.org/1999/xlink" x="0" y="0" width="1318.256" height="213.152" viewBox="0, 0, 1318.256, 213.152">
  <g id="Orig"/>
  <g id="Layer_2">
    <path d="M240.81,212.908 C239.828,212.545 234.762,202.634 224.773,181.535 C216.741,164.572 209.824,150.707 209.401,150.725 C208.978,150.742 207.128,152.077 205.291,153.69 C202.776,155.897 201.71,156.423 200.978,155.816 C200.444,155.372 200.006,154.623 200.006,154.151 C205.345,148.878 210.163,145.682 216.553,140.894 L219.586,147.481 C221.254,151.104 226.855,163.349 232.033,174.693 C237.211,186.037 241.706,195.602 242.02,195.949 C242.335,196.296 243.164,193.427 243.861,189.574 C253.982,133.886 261.717,91.376 272.413,32.568 L1318.256,32.192 L1318.256,38.193 L277.285,38.193 C266.991,96.341 255.585,154.317 245.756,212.549 C245.756,213.114 242.086,213.381 240.81,212.909 z M385.256,203.094 C385.256,202.626 387.437,200.246 390.103,197.803 C396.311,192.115 403.751,182.873 405.993,178.068 C410.093,169.275 406.32,160.439 398.468,160.446 C394.52,160.449 390.843,162.686 389.233,166.063 C387.578,169.534 386.451,169.437 387.111,165.881 C388.895,156.259 399.185,151.786 407.852,156.865 C412.063,159.332 413.756,162.564 413.756,168.132 C413.756,174.575 410.192,180.434 399.272,191.939 C396.187,195.19 393.852,198.039 394.084,198.271 C394.731,198.918 406.209,198.709 409.979,197.982 C411.96,197.6 413.882,196.651 414.685,195.658 C416.854,192.98 417.094,194.53 415.265,199.419 L413.573,203.943 L399.415,203.943 C389.371,203.943 385.256,203.696 385.256,203.094 z M606.506,203.193 C606.506,202.781 607.285,202.443 608.238,202.443 C609.19,202.443 610.625,201.964 611.425,201.378 C612.799,200.373 612.881,199.258 612.881,181.618 C612.881,160.633 612.751,160.048 608.277,160.887 C606.891,161.147 605.756,161.158 605.756,160.91 C605.756,160.481 617.295,154.443 618.115,154.443 C618.33,154.443 618.526,163.64 618.549,174.88 C618.572,186.121 618.831,196.668 619.122,198.318 C619.597,201.007 619.942,201.39 622.454,202.013 C627.589,203.286 625.351,203.943 615.881,203.943 C610.131,203.943 606.506,203.653 606.506,203.193 z M958.256,203.094 C958.256,202.626 960.437,200.246 963.103,197.803 C969.311,192.115 976.751,182.873 978.993,178.068 C983.093,169.275 979.32,160.439 971.468,160.446 C967.52,160.449 963.843,162.686 962.233,166.063 C960.578,169.534 959.451,169.437 960.111,165.881 C961.895,156.259 972.185,151.786 980.852,156.865 C985.062,159.332 986.756,162.564 986.756,168.132 C986.756,174.575 983.192,180.434 972.272,191.939 C969.187,195.19 966.852,198.039 967.084,198.271 C967.731,198.918 979.209,198.709 982.979,197.982 C984.96,197.6 986.882,196.651 987.685,195.658 C989.854,192.98 990.093,194.53 988.265,199.419 L986.573,203.943 L972.415,203.943 C962.371,203.943 958.256,203.696 958.256,203.094 z M1187.756,203.193 C1187.756,202.781 1188.535,202.443 1189.488,202.443 C1190.44,202.443 1191.875,201.964 1192.675,201.378 C1194.049,200.373 1194.131,199.258 1194.131,181.618 C1194.131,160.633 1194.001,160.048 1189.527,160.887 C1188.141,161.147 1187.006,161.158 1187.006,160.91 C1187.006,160.481 1198.545,154.443 1199.365,154.443 C1199.58,154.443 1199.776,163.64 1199.799,174.88 C1199.822,186.121 1200.081,196.668 1200.372,198.318 C1200.847,201.007 1201.192,201.39 1203.704,202.013 C1208.839,203.286 1206.601,203.943 1197.131,203.943 C1191.381,203.943 1187.756,203.653 1187.756,203.193 z M892.77,196.418 C890.107,194.323 890.17,191.664 892.948,188.885 C896.19,185.644 897.964,185.903 900.825,190.039 C901.82,191.477 901.915,191.46 905.018,189.31 C906.764,188.1 910.844,184.25 914.085,180.754 C919.555,174.853 919.951,174.208 919.619,171.733 C919.422,170.267 918.574,160.968 917.733,151.068 C915.326,122.723 915.202,122.365 907.519,121.539 C905.106,121.28 903.216,120.731 903.319,120.318 C903.481,119.67 918.151,115.516 920.467,115.462 C921.635,115.434 923.563,120.903 924.429,126.693 C924.829,129.374 925.748,138.74 926.469,147.506 C927.191,156.271 928.004,163.443 928.277,163.443 C929.593,163.443 945.662,140.488 949.201,133.552 C951.417,129.207 951.214,127.731 948.2,126.301 C942.522,123.606 943.23,115.443 949.143,115.443 C951.981,115.443 954.241,117.244 955.254,120.311 C957.34,126.632 952.846,136.094 938.981,154.579 C928.504,168.546 921.767,176.594 912.506,186.204 C902.388,196.705 896.806,199.593 892.769,196.418 z M1121.377,197.014 C1117.906,195.116 1117.768,191.408 1121.064,188.635 C1124.092,186.087 1125.469,186.177 1127.855,189.081 L1129.828,191.482 L1131.98,190.112 C1133.163,189.358 1137.084,185.719 1140.694,182.026 C1147.053,175.518 1147.256,175.202 1147.247,171.814 C1147.227,164.024 1143.486,128.097 1142.434,125.579 C1141.166,122.545 1138.942,121.443 1134.082,121.443 C1131.809,121.443 1130.756,121.126 1130.756,120.442 C1130.756,119.788 1133.29,118.873 1138.069,117.802 C1142.091,116.901 1146.115,115.969 1147.012,115.731 C1148.914,115.226 1150.5,117.706 1151.694,123.054 C1152.339,125.941 1155.506,158.305 1155.506,162.007 C1155.506,162.797 1155.759,163.437 1156.069,163.43 C1157.294,163.402 1171.855,142.957 1176.4,134.882 C1179.524,129.333 1179.449,127.906 1175.948,126.192 C1169.248,122.914 1171.881,113.931 1179.016,115.722 C1183.255,116.786 1184.694,123.248 1182.263,130.304 C1177.978,142.743 1140.716,189.428 1130.385,195.303 C1126.619,197.445 1123.312,198.073 1121.377,197.014 z M311.066,194.389 C298.521,187.03 288.421,172.353 284.241,155.404 C282.476,148.246 282.509,131.789 284.302,125.193 C288.925,108.187 297.501,95.333 309.415,87.556 C312.458,85.569 315.243,83.943 315.602,83.943 C317.33,83.943 315.919,86.353 313.026,88.344 C305.276,93.676 299.316,103.919 296.674,116.445 C294.536,126.588 294.022,144.924 295.552,156.482 C297.81,173.53 301.798,182.255 311.319,190.973 C314.115,193.534 316.284,195.984 316.139,196.419 C315.994,196.856 313.722,195.946 311.066,194.389 z M643.256,196.592 C643.256,196.173 645.472,194.088 648.181,191.96 C659.971,182.694 665.266,167.259 665.295,142.068 C665.328,114.35 659.802,98.225 646.992,88.662 C643.662,86.176 642.181,83.943 643.863,83.943 C644.841,83.943 652.761,88.882 655.818,91.399 C659.648,94.551 666.657,103.461 669.493,108.782 C674.738,118.622 677.006,128.424 677.006,141.247 C677.006,159.154 670.604,175.067 658.608,186.973 C652.945,192.594 643.256,198.665 643.256,196.592 z M878.006,195.18 C864.226,187.082 854.31,173.22 850.14,156.226 C847.868,146.971 847.88,132.605 850.165,124.068 C854.358,108.405 863.924,94.434 875.318,87.333 C881.244,83.64 881.756,83.45 881.756,84.948 C881.756,85.5 879.717,87.536 877.224,89.472 C872.236,93.346 867.724,99.673 865.202,106.334 C857.796,125.885 858.655,161.382 866.944,178.385 C868.629,181.839 871.219,185.199 875.586,189.593 C879.017,193.044 881.724,196.159 881.602,196.515 C881.48,196.872 879.862,196.271 878.006,195.18 z M1225.256,196.185 C1225.256,195.614 1226.604,194.213 1228.252,193.071 C1236.332,187.472 1242.219,177.309 1244.766,164.563 C1246.755,154.612 1247.43,138.971 1246.319,128.568 C1244.303,109.705 1240.615,100.664 1231.113,91.29 C1225.88,86.128 1224.281,83.943 1225.735,83.943 C1225.998,83.943 1229.048,85.829 1232.513,88.134 C1244.81,96.317 1253.366,109.548 1257.203,126.318 C1259.147,134.81 1258.97,148.961 1256.821,157.068 C1253.354,170.144 1244.386,184.501 1235.578,191.077 C1230.15,195.13 1225.256,197.552 1225.256,196.185 z M8.257,171.235 C4.677,170.011 2.352,167.207 0.754,162.187 C-1.505,155.094 1.419,143.811 8.106,133.813 C12.743,126.88 18.792,121.452 25.777,117.957 C30.608,115.539 31.648,115.291 35.722,115.586 C39.643,115.869 40.632,116.263 42.866,118.428 C44.765,120.269 45.556,120.657 45.823,119.879 C48.103,113.254 53.029,93.633 52.856,91.866 C52.64,89.656 52.48,89.559 48.694,89.341 C44.556,89.103 43.166,87.478 46.444,86.71 C51.08,85.624 64.338,83.774 64.723,84.16 C64.965,84.402 60.239,101.472 54.22,122.093 C48.201,142.715 43.188,160.694 43.079,162.048 C42.756,166.071 45.015,165.752 49.716,161.109 C52.565,158.295 53.978,157.365 54.543,157.93 C55.478,158.865 49.157,166.16 44.456,169.571 C40.813,172.214 35.525,172.563 34.283,170.242 C32.997,167.84 33.401,162.332 35.302,156.347 C36.289,153.237 36.994,150.693 36.867,150.693 C36.741,150.693 35.109,152.836 33.239,155.456 C24.072,168.302 15.506,173.713 8.257,171.235 z M21.303,163.36 C23.313,162.387 26.224,159.811 28.852,156.679 C37.163,146.779 41.767,137.175 42.335,128.554 C42.666,123.516 42.584,123.185 40.418,120.866 C34.104,114.107 23.093,121.378 14.849,137.748 C9.162,149.042 8.871,161.454 14.233,164.045 C16.652,165.214 17.679,165.114 21.303,163.36 z M329.272,171.868 C325.045,171.187 323.809,164.865 327.506,162.836 C329.519,161.731 331.457,162.214 334.837,164.664 C336.49,165.862 336.636,165.801 339.601,162.684 C342.779,159.343 347.951,151.691 350.782,146.143 L352.418,142.936 L350.347,135.002 C347.107,122.593 346.026,121.195 338.944,120.266 C332.675,119.444 334.139,118.144 343.043,116.628 L351.081,115.259 L353.198,117.789 C354.389,119.211 356.181,123.086 357.292,126.641 C359.241,132.879 359.283,132.939 360.449,131.151 C367.361,120.55 373.646,115.209 378.758,115.594 C380.991,115.762 382.119,116.34 383.291,117.915 C384.734,119.855 384.765,120.163 383.705,122.04 C382.524,124.132 380.904,124.375 372.911,123.656 C371.054,123.489 370.07,124.141 366.911,127.632 C364.832,129.929 362.478,133.037 361.68,134.539 L360.229,137.27 L363.038,149.419 C365.864,161.638 367.153,164.943 369.091,164.943 C370.55,164.943 374.484,161.51 376.037,158.881 C377.39,156.592 379.256,155.936 379.256,157.751 C379.256,159.229 374.074,165.626 370.17,168.968 C367.421,171.321 366.442,171.727 363.968,171.54 C359.879,171.231 358.674,169.272 355.987,158.568 C354.745,153.618 353.63,149.255 353.511,148.873 C353.391,148.49 351.001,151.696 348.2,155.998 C339.904,168.738 335.059,172.801 329.272,171.868 z M547.873,171.062 C545.679,169.967 545.381,169.463 545.381,166.847 C545.381,164.453 545.746,163.674 547.256,162.841 C549.272,161.729 551.2,162.211 554.608,164.678 C556.295,165.9 556.414,165.843 559.858,162.149 C561.796,160.071 565.378,155.08 567.817,151.057 L572.253,143.744 L570.546,136.531 C567.44,123.407 565.834,121.203 558.694,120.266 C552.425,119.444 553.889,118.144 562.793,116.628 L570.831,115.259 L572.903,117.742 C574.042,119.107 575.918,123.054 577.071,126.513 L579.167,132.801 L582.859,127.398 C590.329,116.466 598.953,112.414 603.042,117.915 C604.484,119.855 604.515,120.163 603.455,122.04 C602.28,124.122 600.535,124.388 592.802,123.66 C591.446,123.532 590.047,124.091 588.783,125.266 C585.753,128.082 580.253,136.106 580.286,137.663 C580.357,141.026 586.19,162.948 587.312,164.07 C588.426,165.184 588.742,165.194 590.571,164.167 C591.684,163.542 593.616,161.625 594.863,159.908 C597.128,156.79 599.006,155.791 599.006,157.706 C599.006,159.316 595.113,164.258 590.765,168.168 C587.207,171.367 586.429,171.742 583.771,171.543 C579.589,171.229 578.419,169.296 575.698,158.203 C574.434,153.052 573.296,148.732 573.168,148.605 C573.04,148.477 571.015,151.416 568.667,155.136 C559.841,169.125 553.586,173.915 547.873,171.063 z M784.189,170.612 C784.251,159.472 784.256,152.191 784.256,140.193 L755.006,140.193 L755.006,133.443 L784.224,133.443 C784.36,123.568 784.496,113.693 784.631,103.818 L791.381,103.818 C791.517,113.693 791.652,123.568 791.788,133.443 L821.006,133.443 L821.006,140.193 L791.787,140.193 C791.652,150.318 791.517,160.443 791.381,170.568 C788.969,170.596 786.044,170.776 784.189,170.612 z M102.506,146.193 L168.506,146.193 L168.506,152.943 L102.506,152.943 z M454.256,134.193 L519.506,134.193 L519.506,141.693 L454.256,141.693 z M1027.256,134.176 C1049.131,134.306 1071.006,134.437 1092.881,134.567 L1092.881,141.317 C1071.006,141.447 1049.131,141.577 1027.256,141.707 z M102.506,121.426 C124.381,121.556 146.256,121.686 168.131,121.817 L168.131,128.567 C146.256,128.697 124.381,128.827 102.506,128.957 z M686.006,113.844 C686.006,113.376 688.187,110.996 690.853,108.553 C697.061,102.865 704.501,93.623 706.743,88.818 C710.843,80.025 707.07,71.189 699.218,71.196 C695.27,71.199 691.593,73.436 689.983,76.813 C688.328,80.284 687.201,80.187 687.861,76.631 C689.645,67.009 699.935,62.536 708.602,67.615 C712.812,70.082 714.506,73.315 714.506,78.882 C714.506,85.325 710.942,91.184 700.022,102.689 C696.937,105.94 694.602,108.789 694.834,109.021 C695.481,109.668 706.959,109.459 710.729,108.732 C712.71,108.35 714.632,107.401 715.435,106.408 C717.604,103.73 717.844,105.28 716.015,110.169 L714.323,114.693 L700.165,114.693 C690.121,114.693 686.006,114.446 686.006,113.844 z M1268.006,113.844 C1268.006,113.376 1270.187,110.996 1272.853,108.553 C1279.061,102.865 1286.501,93.623 1288.743,88.818 C1292.843,80.025 1289.07,71.189 1281.218,71.196 C1277.27,71.199 1273.593,73.436 1271.983,76.813 C1270.328,80.284 1269.201,80.187 1269.861,76.631 C1271.645,67.009 1281.935,62.536 1290.602,67.615 C1294.812,70.082 1296.506,73.315 1296.506,78.882 C1296.506,85.325 1292.942,91.184 1282.022,102.689 C1278.937,105.94 1276.602,108.789 1276.834,109.021 C1277.481,109.668 1288.959,109.459 1292.729,108.732 C1294.71,108.35 1296.631,107.401 1297.435,106.408 C1299.604,103.73 1299.844,105.28 1298.015,110.169 L1296.323,114.693 L1282.165,114.693 C1272.121,114.693 1268.006,114.446 1268.006,113.844 z" fill="#000000" id="path880"/>
  </g>
</svg>
